PathFileType	4	(X/Y/Z)	/Users/itak/Documents/Research/Walk-IL/dataset/trc/00434_00167.trc
DataRate	CameraRate	NumFrames	NumMarkers	Units	OrigDataRate	OrigDataStartFrame	OrigNumFrames
100.000000	100.000000	4	53	mm	100.000000	452	724
Frame#	Time	RPSI			LPSI			L3			STRN			T10			C7			CLAV			RBAK			LBAK			LSHO			LUPA			LAEL			LAOL			LWTS			LWPS			LFRA			LIFD			LHPS			LHTS			RSHO			RUPA			RAEL			RAOL			RWTS			RWPS			RFRA			RIFD			RHTS			RHPS			RBHD			LFHD			RFHD			LBHD			LHIP			RHIP			RASI			LASI			LKNE			LTHI			LANK			LTIP			LTOE			LMT1			LMT5			LHEE			RKNE			RTHI			RANK			RTIP			RTOE			RMT1			RMT5			RHEE			
		X1	Y1	Z1	X2	Y2	Z2	X3	Y3	Z3	X4	Y4	Z4	X5	Y5	Z5	X6	Y6	Z6	X7	Y7	Z7	X8	Y8	Z8	X9	Y9	Z9	X10	Y10	Z10	X11	Y11	Z11	X12	Y12	Z12	X13	Y13	Z13	X14	Y14	Z14	X15	Y15	Z15	X16	Y16	Z16	X17	Y17	Z17	X18	Y18	Z18	X19	Y19	Z19	X20	Y20	Z20	X21	Y21	Z21	X22	Y22	Z22	X23	Y23	Z23	X24	Y24	Z24	X25	Y25	Z25	X26	Y26	Z26	X27	Y27	Z27	X28	Y28	Z28	X29	Y29	Z29	X30	Y30	Z30	X31	Y31	Z31	X32	Y32	Z32	X33	Y33	Z33	X34	Y34	Z34	X35	Y35	Z35	X36	Y36	Z36	X37	Y37	Z37	X38	Y38	Z38	X39	Y39	Z39	X40	Y40	Z40	X41	Y41	Z41	X42	Y42	Z42	X43	Y43	Z43	X44	Y44	Z44	X45	Y45	Z45	X46	Y46	Z46	X47	Y47	Z47	X48	Y48	Z48	X49	Y49	Z49	X50	Y50	Z50	X51	Y51	Z51	X52	Y52	Z52	X53	Y53	Z53	

453	4.52	174.3825378417969	940.4273681640625	415.4588623046875	246.2441864013672	944.1297607421875	293.2206115722656	217.3297271728516	1034.10107421875	367.1349182128906	447.1062622070312	1218.30712890625	514.6243286132812	206.0876770019531	1157.6611328125	355.8512268066406	255.1810913085938	1422.696044921875	410.4776000976562	417.3476257324219	1333.314819335938	498.4100646972656	151.0216979980469	1300.707641601562	447.0414428710938	284.5592651367188	1381.472412109375	309.0928649902344	415.6268920898438	1400.164306640625	300.9379577636719	455.1589050292969	1282.934692382812	206.230712890625	475.7617797851562	1066.50146484375	179.3386077880859	373.9874877929688	1058.183837890625	195.1533966064453	501.6986694335938	852.3269653320312	236.3516998291016	489.5976867675781	846.8099975585938	163.4425354003906	489.7717895507812	977.5287475585938	172.8929901123047	482.6013488769531	684.9891967773438	214.313720703125	483.5621032714844	765.6852416992188	158.5819091796875	506.9557495117188	760.609619140625	225.4443206787109	223.1636962890625	1383.203979492188	581.3489990234375	160.4007263183594	1322.993041992188	628.30078125	88.77654266357422	1044.042724609375	646.77490234375	75.51673889160156	1037.088989257812	580.1325073242188	151.6428680419922	822.4530029296875	659.365478515625	62.49418640136719	826.0808715820312	656.0403442382812	73.99425506591797	987.0480346679688	650.022705078125	112.3429870605469	667.9896240234375	641.2372436523438	132.2920227050781	721.7938842773438	662.3987426757812	58.08107757568359	737.5485229492188	652.8466796875	261.3921203613281	1614.773193359375	518.2772827148438	459.7768249511719	1643.475830078125	467.2306823730469	384.7654418945312	1643.583862304688	574.2486572265625	350.294189453125	1618.193969726562	363.5191345214844	404.7996215820312	828.1727294921875	245.5297546386719	219.0330657958984	839.8244018554688	601.931640625	336.0814514160156	883.56884765625	587.1751098632812	462.2438049316406	858.6192016601562	364.434326171875	287.9691162109375	421.0696105957031	228.1161346435547	362.29443359375	562.484619140625	248.7211608886719	36.55831527709961	99.01588439941406	87.80384063720703	211.5222930908203	291.5050354003906	173.100830078125	127.8068695068359	37.62180709838867	279.969970703125	70.91947174072266	59.78677749633789	253.9817199707031	135.7609405517578	36.66635513305664	166.2129516601562	-19.66584968566895	144.2484436035156	92.46382141113281	336.330322265625	451.6223754882812	613.6000366210938	274.6694946289062	711.0880737304688	640.4339599609375	406.1171569824219	34.99400329589844	619.3911743164062	365.27685546875	309.6451416015625	635.6492919921875	612.0289916992188	49.67043685913086	696.8939819335938	577.1045532226562	53.42105484008789	631.9801025390625	504.3258056640625	43.39227676391602	710.2866821289062	375.4495849609375	26.88358688354492	544.9586181640625	
454	4.53	181.2776336669922	942.7999877929688	421.4357604980469	253.1944122314453	946.4382934570312	299.2796630859375	223.9680633544922	1036.5478515625	373.3961791992188	453.4927673339844	1220.78369140625	520.9530029296875	212.4088439941406	1159.975952148438	362.0608825683594	261.0201721191406	1424.824951171875	416.9762573242188	423.4918823242188	1335.732666015625	504.8681640625	157.2642974853516	1302.726196289062	453.7809143066406	290.6312255859375	1383.93896484375	315.6368713378906	421.6256408691406	1403.210327148438	307.7435607910156	461.6830749511719	1286.643310546875	212.7672119140625	482.3335876464844	1070.147338867188	185.5929260253906	380.7205505371094	1061.426879882812	201.7165985107422	509.7767028808594	856.21826171875	243.1658477783203	497.3113098144531	850.3018798828125	170.3317413330078	496.83642578125	981.1968994140625	179.3202056884766	490.9394836425781	688.5888671875	221.9583892822266	491.5281372070312	769.0938110351562	165.9153747558594	515.2216186523438	764.3568725585938	232.6189880371094	229.4240875244141	1385.519165039062	587.8197631835938	167.0215759277344	1325.311157226562	635.174072265625	96.95291900634766	1045.99267578125	655.1296997070312	83.39220428466797	1038.596557617188	588.6094360351562	161.5761108398438	824.878662109375	668.6033325195312	72.53309631347656	827.8002319335938	665.6826782226562	82.66057586669922	988.87939453125	658.7682495117188	123.5722503662109	670.0443725585938	651.2359008789062	143.1157531738281	724.0656127929688	672.1116943359375	68.79749298095703	739.2326049804688	662.869873046875	267.126708984375	1616.706909179688	525.1993408203125	465.3858337402344	1645.676147460938	473.9136657714844	390.5591430664062	1645.47314453125	581.0538940429688	355.6910095214844	1620.591796875	370.4336547851562	412.005859375	829.951171875	252.2077941894531	225.2321166992188	841.4474487304688	607.6963500976562	342.2946166992188	885.21435546875	593.3303833007812	468.95263671875	860.8976440429688	370.916259765625	299.0988159179688	421.5128479003906	233.7579193115234	372.4079895019531	563.5994873046875	255.1678466796875	41.20450592041016	104.6758499145508	89.9715576171875	220.5049743652344	293.7527465820312	176.9089965820312	128.1067047119141	37.40473937988281	279.9388122558594	73.272705078125	60.8094367980957	254.9635162353516	136.9621734619141	36.7709846496582	166.8781127929688	-12.78752326965332	152.1863403320312	96.07537841796875	340.1256713867188	452.4933166503906	616.7777709960938	280.234375	712.1890869140625	645.2161865234375	406.3092041015625	35.20327377319336	619.337646484375	367.9784851074219	309.9307250976562	637.6624755859375	612.6124877929688	48.59682846069336	696.1344604492188	577.4708251953125	52.81184005737305	631.4728393554688	504.7284240722656	43.6293830871582	709.9920654296875	375.354248046875	26.9358959197998	545.0520629882812	
455	4.54	187.9674682617188	944.929931640625	427.5628662109375	259.7563781738281	948.6458129882812	305.4311218261719	230.3891296386719	1038.814208984375	379.7307434082031	459.7779541015625	1223.138916015625	527.1571044921875	218.5423431396484	1162.14306640625	368.3395385742188	266.7492980957031	1426.814208984375	423.3367004394531	429.5363464355469	1338.0283203125	511.1912536621094	163.3875122070312	1304.59765625	460.445556640625	296.5815734863281	1386.253295898438	322.0402221679688	427.5080261230469	1406.112915039062	314.434326171875	468.2035217285156	1290.222900390625	219.2475738525391	489.08642578125	1073.667358398438	191.8063049316406	387.5704040527344	1064.518310546875	208.0493774414062	518.09619140625	860.0431518554688	250.1541900634766	505.4355163574219	853.6554565429688	177.3861541748047	504.1626586914062	984.7484741210938	185.7876434326172	499.517822265625	692.1000366210938	229.9496002197266	499.8939208984375	772.332275390625	173.5064544677734	523.7431640625	768.01904296875	240.0980224609375	235.6023712158203	1387.747314453125	594.1557006835938	173.5467834472656	1327.579956054688	641.9315795898438	105.0597076416016	1047.875122070312	663.51611328125	91.18950653076172	1039.941162109375	597.1494750976562	171.7828369140625	827.3690185546875	678.0625610351562	82.88546752929688	829.430419921875	675.5877685546875	91.34262847900391	990.6240234375	667.6148681640625	135.4527435302734	672.1238403320312	661.6135864257812	154.4232940673828	726.4046630859375	682.1451416015625	80.00986480712891	740.828125	673.2219848632812	272.7523193359375	1618.519409179688	531.9566040039062	470.9022521972656	1647.7607421875	480.4339904785156	396.2520141601562	1647.253784179688	587.6972045898438	360.996337890625	1622.861083984375	377.1810607910156	418.9815673828125	831.7669067382812	258.7980346679688	231.3271942138672	842.711181640625	613.4408569335938	348.4661254882812	886.4608154296875	599.4550170898438	475.4886474609375	863.1527709960938	377.2554931640625	310.9207763671875	421.7682800292969	239.4637298583984	382.9385681152344	564.65185546875	261.4779052734375	46.30395889282227	110.6175155639648	92.45702362060547	230.0925750732422	295.8729553222656	180.8886566162109	128.6473846435547	37.0633430480957	280.0491027832031	75.90843200683594	62.06166458129883	256.1363525390625	138.3414764404297	36.96879959106445	167.7032928466797	-5.370315074920654	160.3191223144531	100.1968688964844	343.7797241210938	453.1012878417969	619.7996826171875	285.5881958007812	712.91162109375	649.885498046875	406.5396423339844	35.44070816040039	619.2371215820312	370.6149291992188	310.0437622070312	639.5009765625	613.1983642578125	47.61178970336914	695.3860473632812	577.8764038085938	52.18513488769531	630.9778442382812	505.1445007324219	43.86554718017578	709.6716918945312	375.3426208496094	27.01413154602051	545.0902709960938	
456	4.55	194.4447784423828	946.810546875	433.7695922851562	265.9377746582031	950.6537475585938	311.6191711425781	236.5986175537109	1040.863525390625	386.1139526367188	465.9615783691406	1225.32666015625	533.2316284179688	224.4752960205078	1164.124755859375	374.6821899414062	272.3662414550781	1428.630004882812	429.564697265625	435.4798889160156	1340.15673828125	517.3702392578125	169.3811187744141	1306.2802734375	467.038818359375	302.3875427246094	1388.36767578125	328.3015747070312	433.255126953125	1408.799926757812	320.9817504882812	474.6658630371094	1293.567504882812	225.6490325927734	496.01611328125	1076.977905273438	197.9508819580078	394.532470703125	1067.363159179688	214.1169891357422	526.6539306640625	863.7352905273438	257.3088684082031	513.998046875	856.8076782226562	184.5958099365234	511.75732421875	988.1083374023438	192.2764587402344	508.37548828125	695.4639282226562	238.2779083251953	508.6861877441406	775.3350219726562	181.3391571044922	532.5438842773438	771.5394897460938	247.8851776123047	241.6992950439453	1389.829345703125	600.3674926757812	179.9771270751953	1329.729614257812	648.5758666992188	113.0699310302734	1049.63525390625	671.92333984375	98.87436676025391	1041.065063476562	605.7421875	182.2428894042969	829.89404296875	687.7239990234375	93.53106689453125	830.9403686523438	685.750244140625	100.0133972167969	992.2342529296875	676.5477294921875	147.9657745361328	674.2076416015625	672.3856201171875	166.2279968261719	728.794677734375	692.509765625	91.71048736572266	742.3102416992188	683.9095458984375	278.2621765136719	1620.185668945312	538.5371704101562	476.3201904296875	1649.706420898438	486.774658203125	401.8388061523438	1648.911010742188	594.1620483398438	366.2112731933594	1624.962036132812	383.7371520996094	425.6564025878906	833.5098876953125	265.2427368164062	237.3193511962891	843.6889038085938	619.1494140625	354.5811767578125	887.3582763671875	605.508544921875	481.8547058105469	865.3197631835938	383.4349975585938	323.390869140625	421.8028259277344	245.2654418945312	393.8441162109375	565.5852661132812	267.6415100097656	51.92759323120117	116.8770370483398	95.23128509521484	240.2705993652344	297.8175659179688	185.1044311523438	129.5793609619141	36.58554840087891	280.3657531738281	78.90641021728516	63.65713119506836	257.5452270507812	139.9770050048828	37.335693359375	168.7472991943359	2.607837438583374	168.6485443115234	104.7136917114258	347.3141174316406	453.5023193359375	622.720703125	290.7852478027344	713.3573608398438	654.4654541015625	406.7977600097656	35.69297027587891	619.1004638671875	373.1845397949219	310.0210266113281	641.2095947265625	613.7702026367188	46.72500228881836	694.6690063476562	578.2994995117188	51.55863189697266	630.51708984375	505.5514831542969	44.08665466308594	709.3529663085938	375.3909301757812	27.12112998962402	545.0943603515625	
